<svg width="200" height="200" viewBox="0 0 200 200" fill="none" xmlns="http://www.w3.org/2000/svg">
  <!-- Background circle with gradient -->
  <defs>
    <linearGradient id="bgGradient" x1="0%" y1="0%" x2="100%" y2="100%">
      <stop offset="0%" style="stop-color:#3B82F6;stop-opacity:1" />
      <stop offset="50%" style="stop-color:#1D4ED8;stop-opacity:1" />
      <stop offset="100%" style="stop-color:#1E40AF;stop-opacity:1" />
    </linearGradient>
    <linearGradient id="hGradient" x1="0%" y1="0%" x2="100%" y2="100%">
      <stop offset="0%" style="stop-color:#FFFFFF;stop-opacity:1" />
      <stop offset="100%" style="stop-color:#E5E7EB;stop-opacity:1" />
    </linearGradient>
    <filter id="shadow" x="-50%" y="-50%" width="200%" height="200%">
      <feDropShadow dx="2" dy="2" stdDeviation="3" flood-opacity="0.3"/>
    </filter>
  </defs>
  
  <!-- Main circle background -->
  <circle cx="100" cy="100" r="95" fill="url(#bgGradient)" filter="url(#shadow)"/>
  
  <!-- Inner circle for depth -->
  <circle cx="100" cy="100" r="85" fill="none" stroke="rgba(255,255,255,0.2)" stroke-width="1"/>
  
  <!-- Letter H -->
  <g fill="url(#hGradient)">
    <!-- Left vertical bar -->
    <rect x="55" y="45" width="16" height="110" rx="8"/>
    <!-- Right vertical bar -->
    <rect x="129" y="45" width="16" height="110" rx="8"/>
    <!-- Horizontal crossbar -->
    <rect x="55" y="92" width="90" height="16" rx="8"/>
  </g>
  
  <!-- Decorative elements -->
  <circle cx="70" cy="35" r="3" fill="rgba(255,255,255,0.6)"/>
  <circle cx="130" cy="35" r="2" fill="rgba(255,255,255,0.4)"/>
  <circle cx="160" cy="60" r="2.5" fill="rgba(255,255,255,0.5)"/>
  <circle cx="40" cy="140" r="2" fill="rgba(255,255,255,0.3)"/>
  
  <!-- Subtle gear-like accents around the edge -->
  <g fill="rgba(255,255,255,0.1)">
    <rect x="98" y="8" width="4" height="12" rx="2"/>
    <rect x="98" y="180" width="4" height="12" rx="2"/>
    <rect x="8" y="98" width="12" height="4" ry="2"/>
    <rect x="180" y="98" width="12" height="4" ry="2"/>
  </g>
</svg>